<svg width="37" height="55" viewBox="0 0 37 55" fill="none" xmlns="http://www.w3.org/2000/svg">
<path d="M34.8581 9.48219H36.5888V4.02495H31.4947V0H21.4038V4.02495H0.0988684V9.48219H1.68165V49.5734H0V55H36.5413V49.5734H34.8588V9.48219H34.8581ZM22.626 1.22223H30.273V4.02462L22.626 4.02504V1.22223ZM1.3211 8.26007V5.24717H35.3667V8.26007H1.3211ZM2.90344 9.48219H33.6359V14.9723H2.90344V9.48219ZM33.6359 16.1944V42.8608H2.90344V16.1944H33.6359ZM35.3184 50.7954V53.7777H1.22157V50.7954H35.3184ZM33.6359 49.5733H2.90344V44.0837H33.6359V49.5733ZM18.2948 38.7565C21.8517 38.7565 24.7456 35.8629 24.7456 32.3056C24.7456 28.9214 19.0323 21.011 18.7897 20.6748L18.2948 19.9941L17.7998 20.6753C17.5573 21.0103 11.8439 28.9216 11.8439 32.3061C11.8439 35.863 14.7379 38.7565 18.2947 38.7565L18.2948 38.7565ZM18.2948 22.0895C20.1124 24.6953 23.5235 30.0511 23.5235 32.3061C23.5235 35.1894 21.1781 37.5348 18.2948 37.5348C15.4114 37.5348 13.066 35.1894 13.066 32.3061C13.066 30.0511 16.4771 24.6953 18.2948 22.0895ZM18.3822 35.8013V34.5792C19.6619 34.5792 20.7024 33.5378 20.7024 32.2581H21.9245C21.9241 34.2121 20.3354 35.8013 18.3822 35.8013Z" fill="black"/>
</svg>
