<svg width="68" height="42" viewBox="0 0 68 42" fill="none" xmlns="http://www.w3.org/2000/svg">
<path d="M24.6294 21.5597C18.679 21.5597 13.8495 16.6598 13.8495 10.7799C13.8495 4.89993 18.7494 0 24.6294 0C30.5093 0 35.4092 4.89993 35.4092 10.7799C35.4092 16.6598 30.6494 21.5597 24.6294 21.5597ZM24.6294 1.32952C19.4492 1.32952 15.3193 5.52982 15.3193 10.6396C15.3193 15.8198 19.5196 19.9497 24.6294 19.9497C29.7392 19.9497 33.9395 15.7494 33.9395 10.6396C34.0796 5.59957 29.8095 1.32952 24.6294 1.32952Z" fill="black"/>
<path d="M48.2894 42C47.8694 42 47.5892 41.7202 47.5892 41.2998C47.5892 32.4798 37.299 25.2696 24.6989 25.2696C12.0987 25.2696 1.80862 32.4098 1.80862 41.2298C1.80862 41.6497 1.52883 41.93 1.10841 41.93C0.688482 41.93 0.408203 41.6502 0.408203 41.2298C0.408203 31.5696 11.3282 23.7996 24.7685 23.7996C38.1386 23.7298 49.0588 31.6396 49.0588 41.2298C48.989 41.6497 48.7092 41.9998 48.2892 41.9998L48.2894 42Z" fill="black"/>
<path d="M49.4796 19.1797C44.8595 19.1797 41.1494 15.4697 41.1494 10.8495C41.1494 6.22933 44.8595 2.51929 49.4796 2.51929C54.0998 2.51929 57.8099 6.22933 57.8099 10.8495C57.8099 15.4697 54.0296 19.1797 49.4796 19.1797ZM49.4796 3.98956C45.6998 3.98956 42.6197 7.06972 42.6197 10.8495C42.6197 14.6293 45.6998 17.7095 49.4796 17.7095C53.2594 17.7095 56.3396 14.6293 56.3396 10.8495C56.3396 7.06972 53.2594 3.98956 49.4796 3.98956Z" fill="black"/>
<path d="M67.0496 35.5599C66.6297 35.5599 66.3494 35.2801 66.3494 34.8597C66.3494 28.2795 58.7194 22.9597 49.2692 22.9597C44.3692 22.9597 39.8188 24.43 36.529 26.95C36.2492 27.16 35.759 27.16 35.4792 26.8098C35.2693 26.5301 35.2693 26.0398 35.6194 25.76C39.1194 22.9603 44.0897 21.49 49.2695 21.49C59.4899 21.49 67.8197 27.4403 67.8197 34.8601C67.7504 35.2801 67.4003 35.5599 67.0502 35.5599L67.0496 35.5599Z" fill="black"/>
</svg>
